<?xml version="1.0" standalone="no"?>
<!DOCTYPE svg PUBLIC "-//W3C//DTD SVG 20010904//EN"
 "http://www.w3.org/TR/2001/REC-SVG-20010904/DTD/svg10.dtd">
<svg version="1.0" xmlns="http://www.w3.org/2000/svg"
 width="225.000000pt" height="225.000000pt" viewBox="0 0 225.000000 225.000000"
 preserveAspectRatio="xMidYMid meet">
<metadata>
Created by potrace 1.14, written by Peter Selinger 2001-2017
</metadata>
<g transform="translate(0.000000,225.000000) scale(0.100000,-0.100000)"
fill="#000000" stroke="none">
<path d="M0 1125 l0 -1125 1125 0 1125 0 0 1125 0 1125 -1125 0 -1125 0 0
-1125z m1243 679 c37 -7 50 -16 53 -42 3 -20 -44 -34 -113 -34 -74 1 -88 -11
-78 -65 11 -58 21 -70 97 -119 120 -77 150 -124 129 -201 -19 -70 -62 -98
-221 -143 -41 -12 -87 -29 -102 -38 -37 -21 -37 -56 -1 -79 23 -15 47 -18 160
-16 153 3 195 -8 231 -60 26 -39 28 -81 6 -136 -17 -44 -58 -75 -146 -111
-142 -58 -187 -145 -137 -261 24 -56 20 -72 -12 -43 -55 49 -85 171 -58 241
21 56 84 106 174 137 78 28 92 36 104 63 9 20 9 30 -4 49 -18 28 -38 29 -151
13 -149 -23 -279 24 -323 115 -12 23 -21 56 -21 72 0 31 32 90 59 111 34 26
119 61 186 77 163 39 164 51 13 165 -60 45 -78 77 -78 143 0 48 17 83 63 126
37 35 80 53 112 46 11 -2 37 -7 58 -10z"/>
<path d="M1130 1791 c0 -5 6 -11 13 -14 9 -3 9 -7 0 -17 -14 -15 -36 -3 -29
17 4 9 -4 7 -25 -8 -35 -25 -68 -89 -69 -132 0 -36 22 -87 48 -110 l20 -18
-14 42 c-9 23 -13 59 -10 78 3 20 5 40 6 44 0 5 4 5 10 2 5 -3 7 0 5 7 -6 15
29 57 48 59 7 1 29 0 50 -1 21 -1 37 3 37 9 0 6 14 11 30 11 17 0 30 4 30 10
0 12 -64 29 -68 18 -2 -4 -8 -8 -13 -8 -6 0 -7 5 -4 10 4 6 -8 10 -29 10 -20
0 -36 -4 -36 -9z m-40 -66 c0 -8 -4 -15 -10 -15 -5 0 -10 7 -10 15 0 8 5 15
10 15 6 0 10 -7 10 -15z m-40 -85 c0 -5 -4 -10 -10 -10 -5 0 -10 5 -10 10 0 6
5 10 10 10 6 0 10 -4 10 -10z"/>
<path d="M1081 1621 c-10 -6 -10 -10 -1 -16 13 -8 24 -1 19 14 -3 6 -10 7 -18
2z"/>
<path d="M1090 1590 c-8 -5 -12 -12 -9 -15 8 -8 39 5 39 16 0 11 -11 11 -30
-1z"/>
<path d="M1105 1564 c-24 -10 -27 -14 -13 -19 9 -4 27 -1 40 6 21 11 22 11 9
-4 -7 -10 -20 -17 -27 -17 -15 0 -19 -12 -8 -23 8 -8 64 20 64 32 0 4 -8 15
-17 23 -15 13 -23 13 -48 2z"/>
<path d="M1148 1512 c-16 -10 -28 -20 -28 -24 0 -13 29 -9 58 8 l27 16 -27
-23 -26 -24 22 -16 c25 -19 56 -9 56 18 0 15 -2 15 -18 0 -10 -10 -22 -17 -26
-17 -5 0 2 9 15 19 23 19 24 19 5 40 -22 24 -22 24 -58 3z"/>
<path d="M1220 1517 c0 -3 7 -18 15 -33 41 -80 -4 -129 -146 -159 -187 -38
-283 -135 -235 -237 10 -20 28 -46 41 -58 23 -22 24 -22 18 -1 -8 31 4 65 33
101 25 29 94 70 119 70 25 0 173 53 202 73 18 12 37 32 42 45 18 39 13 106 -9
135 -20 25 -80 73 -80 64z m70 -133 c0 -8 -4 -12 -10 -9 -5 3 -10 10 -10 16 0
5 5 9 10 9 6 0 10 -7 10 -16z m-51 -80 c-9 -11 -15 -12 -26 -3 -17 14 1 31 24
22 10 -4 11 -9 2 -19z m-141 -53 c-7 -9 -14 -18 -15 -20 -2 -2 -12 4 -23 14
-19 17 -19 19 -3 37 15 17 17 17 35 2 14 -14 16 -20 6 -33z m52 29 c0 -5 -4
-10 -10 -10 -5 0 -10 5 -10 10 0 6 5 10 10 10 6 0 10 -4 10 -10z m-130 -40 c0
-5 -4 -10 -10 -10 -5 0 -10 5 -10 10 0 6 5 10 10 10 6 0 10 -4 10 -10z m-85
-40 c11 -17 -5 -32 -21 -19 -7 6 -11 15 -8 20 7 12 21 11 29 -1z m-35 -89 c0
-6 -4 -13 -10 -16 -5 -3 -10 1 -10 9 0 9 5 16 10 16 6 0 10 -4 10 -9z"/>
<path d="M1066 1272 c-3 -6 -1 -14 5 -17 15 -10 25 3 12 16 -7 7 -13 7 -17 1z"/>
<path d="M1210 1430 c-8 -5 -11 -12 -7 -16 4 -4 15 0 24 9 18 18 8 23 -17 7z"/>
<path d="M948 1097 c-8 -6 -18 -21 -22 -32 -6 -16 -2 -15 20 7 29 28 30 48 2
25z"/>
<path d="M951 1061 c-22 -22 -28 -56 -11 -66 6 -3 10 0 10 7 0 7 7 26 15 42
19 36 13 44 -14 17z"/>
<path d="M974 1035 c-17 -41 -18 -58 -3 -53 6 2 17 22 25 43 17 48 16 45 3 45
-5 0 -17 -16 -25 -35z"/>
<path d="M1010 1034 c-12 -32 -13 -64 -1 -64 5 0 11 12 14 28 3 15 9 35 12 45
4 10 3 17 -4 17 -6 0 -16 -12 -21 -26z"/>
<path d="M1181 1042 c-13 -25 -14 -59 -2 -66 5 -3 11 13 13 37 6 50 3 56 -11
29z"/>
<path d="M1210 1036 c-12 -33 -13 -56 -1 -56 9 0 24 71 16 78 -2 3 -9 -7 -15
-22z"/>
<path d="M1236 1028 c-3 -17 -2 -36 4 -42 7 -7 10 -1 10 16 0 15 3 33 6 42 3
9 2 16 -4 16 -5 0 -12 -14 -16 -32z"/>
<path d="M1271 1038 c-4 -12 -6 -31 -3 -43 5 -17 7 -15 12 11 4 17 10 36 14
42 4 7 2 12 -4 12 -6 0 -14 -10 -19 -22z"/>
<path d="M1041 1019 c-14 -42 -14 -49 4 -49 9 0 15 9 15 24 0 13 3 31 6 40 3
9 2 16 -4 16 -6 0 -15 -14 -21 -31z"/>
<path d="M1075 1014 c-6 -33 -1 -54 9 -43 10 10 17 79 8 79 -5 0 -13 -16 -17
-36z"/>
<path d="M1117 1038 c-14 -35 -15 -45 -7 -59 14 -21 22 -5 18 37 -3 28 -6 34
-11 22z"/>
<path d="M1146 1034 c-9 -24 -7 -64 3 -64 5 0 11 18 13 40 4 40 -5 53 -16 24z"/>
<path d="M1299 1023 c-15 -41 -5 -48 14 -9 9 20 12 36 7 36 -6 0 -15 -12 -21
-27z"/>
<path d="M1332 1027 c-14 -18 -22 -47 -13 -47 4 0 17 11 28 24 17 19 18 26 8
30 -7 2 -18 -1 -23 -7z"/>
<path d="M1345 990 c-10 -11 -16 -22 -13 -25 8 -9 69 26 63 36 -10 15 -31 10
-50 -11z"/>
<path d="M1363 963 c-23 -9 -13 -20 17 -19 17 1 30 7 30 14 0 12 -24 15 -47 5z"/>
<path d="M1350 926 c0 -8 51 -13 56 -5 3 5 -9 9 -25 9 -17 0 -31 -2 -31 -4z"/>
<path d="M1360 900 c20 -13 33 -13 25 0 -3 6 -14 10 -23 10 -15 0 -15 -2 -2
-10z"/>
<path d="M1335 879 c-4 -6 -4 -13 -1 -16 3 -4 6 -1 6 6 0 7 5 9 10 6 6 -3 10
-1 10 4 0 14 -17 14 -25 0z"/>
<path d="M1374 870 c-6 -6 -47 -20 -90 -31 -152 -37 -233 -112 -234 -212 0
-50 28 -124 55 -147 13 -11 14 -9 0 23 -31 76 -8 173 52 215 16 11 66 38 113
60 86 40 125 71 118 92 -2 8 -6 8 -14 0z m-94 -65 c0 -8 -4 -15 -10 -15 -5 0
-10 7 -10 15 0 8 5 15 10 15 6 0 10 -7 10 -15z m-84 -26 c8 -14 -11 -33 -25
-25 -11 7 -4 36 9 36 5 0 12 -5 16 -11z m-86 -79 c0 -5 -4 -10 -10 -10 -5 0
-10 5 -10 10 0 6 5 10 10 10 6 0 10 -4 10 -10z m-30 -90 c0 -5 -4 -10 -10 -10
-5 0 -10 5 -10 10 0 6 5 10 10 10 6 0 10 -4 10 -10z"/>
</g>
</svg>
